<?xml version="1.0" encoding="UTF-8" standalone="no"?>
<!DOCTYPE svg PUBLIC "-//W3C//DTD SVG 1.1//EN" "http://www.w3.org/Graphics/SVG/1.1/DTD/svg11.dtd">
<svg width="100%" height="100%" viewBox="0 0 245 40" version="1.1" xmlns="http://www.w3.org/2000/svg" xmlns:xlink="http://www.w3.org/1999/xlink" xml:space="preserve" xmlns:serif="http://www.serif.com/" style="fill-rule:evenodd;clip-rule:evenodd;stroke-linejoin:round;stroke-miterlimit:2;">
    <g transform="matrix(2.60537,0,0,2.60537,-84.6625,-29.639)">
        <path d="M32.74,22.893C32.636,22.805 32.566,22.721 32.53,22.641C32.494,22.561 32.486,22.469 32.506,22.365C32.526,22.261 32.556,22.133 32.596,21.981C32.66,21.725 32.73,21.511 32.806,21.339C32.882,21.167 32.958,20.987 33.034,20.799C33.11,20.611 33.176,20.369 33.232,20.073C33.36,19.777 33.474,19.497 33.574,19.233C33.674,18.969 33.752,18.753 33.808,18.585C33.864,18.417 33.892,18.333 33.892,18.333C33.9,18.301 33.934,18.217 33.994,18.081C34.054,17.945 34.134,17.779 34.234,17.583C34.334,17.387 34.428,17.189 34.516,16.989C34.652,16.605 34.768,16.275 34.864,15.999C34.96,15.723 35.058,15.475 35.158,15.255C35.258,15.035 35.38,14.817 35.524,14.601C35.62,14.433 35.74,14.327 35.884,14.283C36.028,14.239 36.164,14.247 36.292,14.307C36.42,14.367 36.508,14.477 36.556,14.637C36.596,14.717 36.63,14.811 36.658,14.919C36.686,15.027 36.714,15.185 36.742,15.393C36.77,15.601 36.788,15.897 36.796,16.281C36.812,16.737 36.818,17.177 36.814,17.601C36.81,18.025 36.816,18.415 36.832,18.771C36.848,19.127 36.892,19.437 36.964,19.701C36.988,19.845 37.018,20.019 37.054,20.223C37.09,20.427 37.13,20.629 37.174,20.829C37.218,21.029 37.264,21.197 37.312,21.333C37.36,21.469 37.4,21.537 37.432,21.537C37.472,21.537 37.522,21.491 37.582,21.399C37.642,21.307 37.724,21.133 37.828,20.877C37.932,20.621 38.056,20.249 38.2,19.761C38.344,19.273 38.512,18.637 38.704,17.853C38.744,17.717 38.798,17.497 38.866,17.193C38.934,16.889 38.984,16.581 39.016,16.269C39.072,16.069 39.128,15.849 39.184,15.609C39.24,15.369 39.29,15.157 39.334,14.973C39.378,14.789 39.4,14.685 39.4,14.661C39.4,14.605 39.402,14.557 39.406,14.517C39.41,14.477 39.408,14.437 39.4,14.397C39.44,14.397 39.476,14.343 39.508,14.235C39.54,14.127 39.556,14.033 39.556,13.953C39.556,13.817 39.574,13.707 39.61,13.623C39.646,13.539 39.684,13.477 39.724,13.437C39.772,13.341 39.852,13.293 39.964,13.293C40.076,13.293 40.184,13.323 40.288,13.383C40.392,13.443 40.456,13.521 40.48,13.617C40.496,13.705 40.474,13.903 40.414,14.211C40.354,14.519 40.264,14.933 40.144,15.453C40.144,15.541 40.12,15.685 40.072,15.885C40.024,16.085 39.974,16.297 39.922,16.521C39.87,16.745 39.832,16.937 39.808,17.097C39.776,17.305 39.74,17.499 39.7,17.679C39.66,17.859 39.62,17.945 39.58,17.937C39.372,18.841 39.154,19.611 38.926,20.247C38.698,20.883 38.496,21.401 38.32,21.801C38.128,22.241 37.906,22.513 37.654,22.617C37.402,22.721 37.148,22.609 36.892,22.281C36.74,22.073 36.616,21.867 36.52,21.663C36.424,21.459 36.348,21.219 36.292,20.943C36.236,20.667 36.172,20.325 36.1,19.917C36.004,19.589 35.946,19.259 35.926,18.927C35.906,18.595 35.904,18.253 35.92,17.901C35.936,17.549 35.952,17.181 35.968,16.797C35.96,16.389 35.942,16.129 35.914,16.017C35.886,15.905 35.836,15.923 35.764,16.071C35.692,16.219 35.588,16.485 35.452,16.869C35.396,17.021 35.324,17.203 35.236,17.415C35.148,17.627 35.062,17.837 34.978,18.045C34.894,18.253 34.82,18.433 34.756,18.585C34.692,18.737 34.652,18.833 34.636,18.873C34.588,18.969 34.532,19.095 34.468,19.251C34.404,19.407 34.352,19.573 34.312,19.749C34.024,20.501 33.81,21.117 33.67,21.597C33.53,22.077 33.428,22.405 33.364,22.581C33.284,22.805 33.204,22.949 33.124,23.013C33.044,23.077 32.916,23.037 32.74,22.893Z" style="fill-rule:nonzero;"/>
        <path d="M42.856,22.029C42.776,21.949 42.702,21.839 42.634,21.699C42.566,21.559 42.508,21.397 42.46,21.213C42.444,21.149 42.438,21.067 42.442,20.967C42.446,20.867 42.444,20.793 42.436,20.745C42.412,20.801 42.374,20.863 42.322,20.931C42.27,20.999 42.22,21.053 42.172,21.093C42.14,21.125 42.068,21.187 41.956,21.279C41.844,21.371 41.732,21.445 41.62,21.501C41.356,21.669 41.132,21.757 40.948,21.765C40.764,21.773 40.596,21.681 40.444,21.489C40.316,21.385 40.222,21.263 40.162,21.123C40.102,20.983 40.096,20.801 40.144,20.577C40.16,20.297 40.2,20.023 40.264,19.755C40.328,19.487 40.46,19.129 40.66,18.681C40.828,18.353 40.956,18.107 41.044,17.943C41.132,17.779 41.188,17.681 41.212,17.649C41.332,17.609 41.448,17.611 41.56,17.655C41.672,17.699 41.736,17.777 41.752,17.889C41.8,17.969 41.796,18.109 41.74,18.309C41.684,18.509 41.584,18.749 41.44,19.029C41.328,19.301 41.224,19.571 41.128,19.839C41.032,20.107 40.976,20.333 40.96,20.517C40.944,20.701 40.992,20.813 41.104,20.853C41.176,20.893 41.294,20.885 41.458,20.829C41.622,20.773 41.812,20.619 42.028,20.367C42.244,20.115 42.46,19.729 42.676,19.209C42.74,19.049 42.788,18.907 42.82,18.783C42.852,18.659 42.872,18.521 42.88,18.369C42.864,18.273 42.878,18.183 42.922,18.099C42.966,18.015 43.036,17.945 43.132,17.889C43.164,17.849 43.208,17.811 43.264,17.775C43.32,17.739 43.356,17.741 43.372,17.781L43.564,17.769C43.596,17.761 43.622,17.783 43.642,17.835C43.662,17.887 43.692,17.929 43.732,17.961C43.82,18.033 43.85,18.189 43.822,18.429C43.794,18.669 43.688,19.005 43.504,19.437C43.352,19.765 43.25,20.013 43.198,20.181C43.146,20.349 43.116,20.513 43.108,20.673C43.108,20.817 43.13,20.949 43.174,21.069C43.218,21.189 43.3,21.301 43.42,21.405C43.508,21.461 43.558,21.535 43.57,21.627C43.582,21.719 43.584,21.813 43.576,21.909C43.56,21.981 43.508,22.035 43.42,22.071C43.332,22.107 43.236,22.123 43.132,22.119C43.028,22.115 42.936,22.085 42.856,22.029Z" style="fill-rule:nonzero;"/>
        <path d="M49.912,21.621C49.864,21.605 49.794,21.561 49.702,21.489C49.61,21.417 49.53,21.299 49.462,21.135C49.394,20.971 49.36,20.749 49.36,20.469C49.368,20.229 49.378,20.047 49.39,19.923C49.402,19.799 49.38,19.737 49.324,19.737C49.268,19.737 49.16,19.791 49,19.899C48.84,20.007 48.65,20.159 48.43,20.355C48.21,20.551 47.976,20.785 47.728,21.057C47.64,21.137 47.552,21.223 47.464,21.315C47.376,21.407 47.288,21.469 47.2,21.501C47.112,21.533 47.02,21.509 46.924,21.429L46.804,21.321C46.756,21.281 46.722,21.233 46.702,21.177C46.682,21.121 46.68,21.065 46.696,21.009L46.996,20.169C47.116,19.905 47.198,19.713 47.242,19.593C47.286,19.473 47.306,19.397 47.302,19.365C47.298,19.333 47.284,19.321 47.26,19.329C47.196,19.337 47.108,19.377 46.996,19.449C46.884,19.521 46.808,19.585 46.768,19.641C46.736,19.641 46.69,19.677 46.63,19.749C46.57,19.821 46.5,19.885 46.42,19.941C46.364,20.021 46.262,20.133 46.114,20.277C45.966,20.421 45.816,20.573 45.664,20.733C45.56,20.821 45.452,20.935 45.34,21.075C45.228,21.215 45.132,21.337 45.052,21.441C44.972,21.545 44.92,21.597 44.896,21.597C44.776,21.597 44.67,21.563 44.578,21.495C44.486,21.427 44.42,21.329 44.38,21.201C44.316,21.081 44.312,20.901 44.368,20.661C44.424,20.421 44.5,20.085 44.596,19.653C44.628,19.533 44.65,19.439 44.662,19.371C44.674,19.303 44.692,19.235 44.716,19.167C44.74,19.099 44.778,19.003 44.83,18.879C44.882,18.755 44.956,18.581 45.052,18.357C45.1,18.221 45.128,18.111 45.136,18.027C45.144,17.943 45.144,17.877 45.136,17.829C45.136,17.741 45.164,17.665 45.22,17.601C45.276,17.537 45.342,17.493 45.418,17.469C45.494,17.445 45.56,17.441 45.616,17.457C45.744,17.473 45.844,17.529 45.916,17.625C45.988,17.721 46.028,17.833 46.036,17.961C46.044,18.065 46.034,18.157 46.006,18.237C45.978,18.317 45.952,18.389 45.928,18.453L45.796,18.777C45.74,18.897 45.686,19.027 45.634,19.167C45.582,19.307 45.538,19.429 45.502,19.533C45.466,19.637 45.448,19.701 45.448,19.725C45.456,19.749 45.488,19.741 45.544,19.701C45.6,19.661 45.668,19.605 45.748,19.533C45.828,19.461 45.908,19.393 45.988,19.329C46.148,19.177 46.326,19.031 46.522,18.891C46.718,18.751 46.906,18.631 47.086,18.531C47.266,18.431 47.408,18.365 47.512,18.333C47.648,18.341 47.754,18.379 47.83,18.447C47.906,18.515 47.992,18.605 48.088,18.717C48.136,18.797 48.158,18.883 48.154,18.975C48.15,19.067 48.14,19.153 48.124,19.233C48.116,19.265 48.094,19.337 48.058,19.449C48.022,19.561 47.988,19.667 47.956,19.767C47.924,19.867 47.908,19.917 47.908,19.917C47.908,19.917 47.948,19.881 48.028,19.809C48.108,19.737 48.198,19.659 48.298,19.575C48.398,19.491 48.48,19.425 48.544,19.377C48.888,19.113 49.176,18.947 49.408,18.879C49.64,18.811 49.832,18.889 49.984,19.113C50.08,19.201 50.134,19.305 50.146,19.425C50.158,19.545 50.164,19.733 50.164,19.989C50.172,20.093 50.18,20.215 50.188,20.355C50.196,20.495 50.208,20.619 50.224,20.727C50.24,20.835 50.256,20.901 50.272,20.925C50.296,20.957 50.342,20.985 50.41,21.009C50.478,21.033 50.556,21.053 50.644,21.069C50.764,21.101 50.834,21.171 50.854,21.279C50.874,21.387 50.82,21.481 50.692,21.561C50.572,21.633 50.442,21.669 50.302,21.669C50.162,21.669 50.032,21.653 49.912,21.621Z" style="fill-rule:nonzero;"/>
        <path d="M52.372,22.149C51.988,22.149 51.682,22.017 51.454,21.753C51.226,21.489 51.116,21.137 51.124,20.697C51.132,20.409 51.188,20.097 51.292,19.761C51.396,19.425 51.534,19.099 51.706,18.783C51.878,18.467 52.066,18.191 52.27,17.955C52.474,17.719 52.684,17.553 52.9,17.457C52.98,17.417 53.066,17.385 53.158,17.361C53.25,17.337 53.344,17.325 53.44,17.325C53.528,17.325 53.624,17.337 53.728,17.361C53.832,17.385 53.92,17.413 53.992,17.445C54.144,17.501 54.268,17.583 54.364,17.691C54.46,17.799 54.528,17.961 54.568,18.177C54.584,18.305 54.588,18.405 54.58,18.477C54.572,18.549 54.548,18.641 54.508,18.753C54.412,19.033 54.278,19.283 54.106,19.503C53.934,19.723 53.724,19.897 53.476,20.025C53.412,20.065 53.342,20.093 53.266,20.109C53.19,20.125 53.112,20.133 53.032,20.133C52.872,20.133 52.72,20.105 52.576,20.049C52.432,19.993 52.312,19.913 52.216,19.809L52.132,19.713L52.084,19.821C52.012,20.013 51.958,20.187 51.922,20.343C51.886,20.499 51.868,20.637 51.868,20.757C51.868,20.853 51.876,20.947 51.892,21.039C51.908,21.131 51.936,21.209 51.976,21.273C52.008,21.321 52.058,21.355 52.126,21.375C52.194,21.395 52.272,21.405 52.36,21.405C52.408,21.405 52.46,21.403 52.516,21.399C52.572,21.395 52.624,21.385 52.672,21.369C52.808,21.321 52.92,21.267 53.008,21.207C53.096,21.147 53.188,21.085 53.284,21.021L53.332,20.997L53.32,20.985C53.424,20.929 53.51,20.881 53.578,20.841C53.646,20.801 53.684,20.781 53.692,20.781C53.724,20.765 53.756,20.745 53.788,20.721C53.868,20.697 53.96,20.715 54.064,20.775C54.168,20.835 54.22,20.913 54.22,21.009C54.212,21.057 54.176,21.125 54.112,21.213C54.048,21.301 53.974,21.387 53.89,21.471C53.806,21.555 53.732,21.609 53.668,21.633C53.652,21.641 53.624,21.653 53.584,21.669C53.544,21.685 53.516,21.701 53.5,21.717L53.512,21.717C53.44,21.813 53.368,21.861 53.296,21.861L53.2,21.861C53.168,21.917 53.064,21.979 52.888,22.047C52.712,22.115 52.54,22.149 52.372,22.149ZM52.936,19.425C53.056,19.425 53.162,19.393 53.254,19.329C53.346,19.265 53.428,19.193 53.5,19.113C53.668,18.921 53.772,18.721 53.812,18.513C53.852,18.305 53.828,18.157 53.74,18.069C53.7,18.045 53.664,18.029 53.632,18.021C53.6,18.013 53.544,18.021 53.464,18.045C53.392,18.053 53.294,18.101 53.17,18.189C53.046,18.277 52.926,18.381 52.81,18.501C52.694,18.621 52.6,18.737 52.528,18.849L52.372,19.101C52.42,19.077 52.466,19.063 52.51,19.059C52.554,19.055 52.58,19.061 52.588,19.077C52.612,19.125 52.638,19.177 52.666,19.233C52.694,19.289 52.728,19.335 52.768,19.371C52.808,19.407 52.864,19.425 52.936,19.425Z" style="fill-rule:nonzero;"/>
        <path d="M55.936,21.717C55.912,21.725 55.87,21.721 55.81,21.705C55.75,21.689 55.688,21.669 55.624,21.645C55.56,21.621 55.52,21.601 55.504,21.585C55.472,21.553 55.438,21.503 55.402,21.435C55.366,21.367 55.354,21.267 55.366,21.135C55.378,21.003 55.452,20.837 55.588,20.637C55.628,20.557 55.676,20.437 55.732,20.277C55.788,20.117 55.846,19.947 55.906,19.767C55.966,19.587 56.022,19.425 56.074,19.281C56.126,19.137 56.164,19.037 56.188,18.981C56.204,18.845 56.198,18.747 56.17,18.687C56.142,18.627 56.072,18.593 55.96,18.585C55.88,18.585 55.818,18.571 55.774,18.543C55.73,18.515 55.708,18.429 55.708,18.285C55.724,18.173 55.754,18.087 55.798,18.027C55.842,17.967 55.904,17.909 55.984,17.853C56.064,17.813 56.154,17.785 56.254,17.769C56.354,17.753 56.45,17.749 56.542,17.757C56.634,17.765 56.704,17.793 56.752,17.841C56.808,17.873 56.848,17.943 56.872,18.051C56.896,18.159 56.912,18.269 56.92,18.381C56.928,18.493 56.936,18.577 56.944,18.633C57.024,18.569 57.128,18.479 57.256,18.363C57.384,18.247 57.5,18.137 57.604,18.033C57.732,17.945 57.884,17.855 58.06,17.763C58.236,17.671 58.364,17.625 58.444,17.625C58.532,17.625 58.626,17.655 58.726,17.715C58.826,17.775 58.892,17.837 58.924,17.901C59.004,18.037 59.05,18.163 59.062,18.279C59.074,18.395 59.036,18.509 58.948,18.621C58.868,18.725 58.764,18.807 58.636,18.867C58.508,18.927 58.4,18.953 58.312,18.945C58.264,18.937 58.206,18.891 58.138,18.807C58.07,18.723 58.032,18.657 58.024,18.609C58.024,18.585 57.98,18.607 57.892,18.675C57.804,18.743 57.704,18.827 57.592,18.927C57.48,19.027 57.384,19.117 57.304,19.197C57.168,19.365 57.024,19.593 56.872,19.881C56.72,20.169 56.54,20.517 56.332,20.925C56.236,21.125 56.164,21.301 56.116,21.453C56.068,21.605 56.008,21.693 55.936,21.717Z" style="fill-rule:nonzero;"/>
        <path d="M59.728,21.525C59.696,21.525 59.648,21.511 59.584,21.483C59.52,21.455 59.488,21.441 59.488,21.441C59.488,21.409 59.478,21.369 59.458,21.321C59.438,21.273 59.428,21.233 59.428,21.201C59.372,21.169 59.332,21.129 59.308,21.081C59.284,21.033 59.288,20.965 59.32,20.877C59.368,20.797 59.432,20.667 59.512,20.487C59.592,20.307 59.678,20.107 59.77,19.887C59.862,19.667 59.95,19.453 60.034,19.245C60.118,19.037 60.19,18.857 60.25,18.705C60.31,18.553 60.344,18.461 60.352,18.429C60.352,18.397 60.362,18.351 60.382,18.291C60.402,18.231 60.436,18.181 60.484,18.141C60.564,18.085 60.646,18.081 60.73,18.129C60.814,18.177 60.886,18.261 60.946,18.381C61.006,18.501 61.036,18.637 61.036,18.789C61.036,18.845 60.996,18.987 60.916,19.215C60.836,19.443 60.73,19.713 60.598,20.025C60.466,20.337 60.32,20.653 60.16,20.973C60.04,21.205 59.96,21.355 59.92,21.423C59.88,21.491 59.816,21.525 59.728,21.525ZM61.444,16.965C61.348,16.965 61.242,16.925 61.126,16.845C61.01,16.765 60.91,16.663 60.826,16.539C60.742,16.415 60.7,16.289 60.7,16.161C60.7,16.121 60.728,16.059 60.784,15.975C60.84,15.891 60.896,15.807 60.952,15.723C61.008,15.639 61.036,15.589 61.036,15.573C61.1,15.573 61.158,15.579 61.21,15.591C61.262,15.603 61.316,15.625 61.372,15.657C61.46,15.857 61.572,16.023 61.708,16.155C61.844,16.287 61.912,16.413 61.912,16.533C61.912,16.709 61.886,16.825 61.834,16.881C61.782,16.937 61.652,16.965 61.444,16.965Z" style="fill-rule:nonzero;"/>
        <path d="M63.472,21.813C63.368,21.861 63.248,21.881 63.112,21.873C62.976,21.865 62.792,21.821 62.56,21.741C62.544,21.741 62.504,21.717 62.44,21.669C62.376,21.621 62.31,21.565 62.242,21.501C62.174,21.437 62.124,21.373 62.092,21.309C61.964,21.125 61.916,20.853 61.948,20.493C61.98,20.133 62.096,19.701 62.296,19.197C62.352,19.077 62.438,18.925 62.554,18.741C62.67,18.557 62.786,18.387 62.902,18.231C63.018,18.075 63.1,17.985 63.148,17.961C63.148,17.961 63.192,17.945 63.28,17.913C63.368,17.881 63.48,17.829 63.616,17.757C63.656,17.741 63.71,17.723 63.778,17.703C63.846,17.683 63.918,17.667 63.994,17.655C64.07,17.643 64.128,17.641 64.168,17.649C64.328,17.657 64.494,17.715 64.666,17.823C64.838,17.931 64.98,18.055 65.092,18.195C65.204,18.335 65.24,18.457 65.2,18.561C65.2,18.577 65.178,18.613 65.134,18.669C65.09,18.725 65.042,18.783 64.99,18.843C64.938,18.903 64.896,18.953 64.864,18.993C64.824,19.041 64.764,19.061 64.684,19.053C64.604,19.045 64.534,19.011 64.474,18.951C64.414,18.891 64.38,18.813 64.372,18.717C64.356,18.653 64.298,18.593 64.198,18.537C64.098,18.481 64.048,18.453 64.048,18.453C63.984,18.453 63.896,18.513 63.784,18.633C63.672,18.753 63.56,18.893 63.448,19.053C63.304,19.197 63.188,19.361 63.1,19.545C63.012,19.729 62.944,19.903 62.896,20.067C62.848,20.231 62.812,20.349 62.788,20.421C62.756,20.501 62.754,20.609 62.782,20.745C62.81,20.881 62.84,20.961 62.872,20.985C62.92,21.001 63.008,21.003 63.136,20.991C63.264,20.979 63.414,20.957 63.586,20.925C63.758,20.893 63.926,20.857 64.09,20.817C64.254,20.777 64.392,20.733 64.504,20.685C64.656,20.589 64.788,20.539 64.9,20.535C65.012,20.531 65.096,20.537 65.152,20.553C65.24,20.585 65.29,20.637 65.302,20.709C65.314,20.781 65.288,20.859 65.224,20.943C65.16,21.027 65.06,21.105 64.924,21.177C64.796,21.241 64.682,21.311 64.582,21.387C64.482,21.463 64.432,21.521 64.432,21.561C64.4,21.561 64.366,21.571 64.33,21.591C64.294,21.611 64.264,21.617 64.24,21.609C64.224,21.609 64.16,21.621 64.048,21.645C63.936,21.669 63.822,21.697 63.706,21.729C63.59,21.761 63.512,21.789 63.472,21.813Z" style="fill-rule:nonzero;"/>
        <path d="M66.4,21.681C66.368,21.617 66.318,21.563 66.25,21.519C66.182,21.475 66.148,21.437 66.148,21.405C66.148,21.373 66.14,21.333 66.124,21.285C66.108,21.237 66.084,21.197 66.052,21.165C66.012,21.117 66.018,21.005 66.07,20.829C66.122,20.653 66.208,20.435 66.328,20.175C66.448,19.915 66.584,19.645 66.736,19.365C66.8,19.301 66.864,19.217 66.928,19.113C66.992,19.009 67.04,18.941 67.072,18.909C67.072,18.877 67.084,18.847 67.108,18.819C67.132,18.791 67.16,18.777 67.192,18.777L67.216,18.669C67.224,18.629 67.268,18.561 67.348,18.465C67.428,18.369 67.524,18.263 67.636,18.147C67.748,18.031 67.866,17.919 67.99,17.811C68.114,17.703 68.216,17.625 68.296,17.577C68.464,17.465 68.638,17.403 68.818,17.391C68.998,17.379 69.152,17.425 69.28,17.529C69.304,17.553 69.348,17.595 69.412,17.655C69.476,17.715 69.552,17.783 69.64,17.859C69.728,17.935 69.812,18.009 69.892,18.081L70.336,18.477L70.12,19.077C70.016,19.397 69.99,19.677 70.042,19.917C70.094,20.157 70.172,20.365 70.276,20.541C70.316,20.629 70.388,20.707 70.492,20.775C70.596,20.843 70.704,20.885 70.816,20.901C70.88,20.909 70.94,20.933 70.996,20.973C71.052,21.013 71.08,21.077 71.08,21.165C71.08,21.285 71.058,21.375 71.014,21.435C70.97,21.495 70.908,21.533 70.828,21.549C70.564,21.581 70.316,21.529 70.084,21.393C69.852,21.257 69.64,21.005 69.448,20.637C69.416,20.589 69.374,20.499 69.322,20.367C69.27,20.235 69.24,20.149 69.232,20.109C69.2,20.149 69.146,20.215 69.07,20.307C68.994,20.399 68.932,20.469 68.884,20.517C68.316,21.093 67.828,21.475 67.42,21.663C67.012,21.851 66.672,21.857 66.4,21.681ZM66.904,20.901C66.92,20.941 67.006,20.929 67.162,20.865C67.318,20.801 67.496,20.689 67.696,20.529C67.968,20.297 68.226,20.063 68.47,19.827C68.714,19.591 68.92,19.353 69.088,19.113L69.352,18.681C69.272,18.497 69.19,18.373 69.106,18.309C69.022,18.245 68.948,18.213 68.884,18.213C68.78,18.213 68.636,18.299 68.452,18.471C68.268,18.643 68.068,18.877 67.852,19.173C67.636,19.469 67.424,19.809 67.216,20.193C67.128,20.361 67.054,20.521 66.994,20.673C66.934,20.825 66.904,20.901 66.904,20.901Z" style="fill-rule:nonzero;"/>
        <path d="M71.932,22.101C71.78,22.141 71.654,22.105 71.554,21.993C71.454,21.881 71.39,21.713 71.362,21.489C71.334,21.265 71.352,21.005 71.416,20.709C71.456,20.613 71.488,20.519 71.512,20.427C71.536,20.335 71.548,20.261 71.548,20.205C71.564,20.125 71.596,20.007 71.644,19.851C71.692,19.695 71.744,19.533 71.8,19.365C71.856,19.197 71.91,19.047 71.962,18.915C72.014,18.783 72.048,18.701 72.064,18.669C72.096,18.669 72.124,18.641 72.148,18.585C72.172,18.529 72.184,18.473 72.184,18.417C72.184,18.353 72.198,18.281 72.226,18.201C72.254,18.121 72.284,18.065 72.316,18.033C72.316,17.993 72.326,17.947 72.346,17.895C72.366,17.843 72.376,17.801 72.376,17.769C72.376,17.737 72.386,17.705 72.406,17.673C72.426,17.641 72.436,17.609 72.436,17.577C72.492,17.473 72.566,17.307 72.658,17.079C72.75,16.851 72.85,16.597 72.958,16.317C73.066,16.037 73.168,15.761 73.264,15.489C73.36,15.217 73.438,14.987 73.498,14.799C73.558,14.611 73.588,14.497 73.588,14.457C73.588,14.393 73.606,14.341 73.642,14.301C73.678,14.261 73.728,14.241 73.792,14.241C73.816,14.217 73.856,14.201 73.912,14.193C73.968,14.185 74.012,14.181 74.044,14.181L74.236,14.373C74.3,14.429 74.346,14.493 74.374,14.565C74.402,14.637 74.416,14.721 74.416,14.817C74.416,14.921 74.402,15.015 74.374,15.099C74.346,15.183 74.296,15.303 74.224,15.459C74.152,15.615 74.04,15.853 73.888,16.173C73.824,16.333 73.756,16.483 73.684,16.623C73.612,16.763 73.576,16.849 73.576,16.881C73.576,16.913 73.562,16.961 73.534,17.025C73.506,17.089 73.476,17.169 73.444,17.265C73.412,17.329 73.368,17.423 73.312,17.547C73.256,17.671 73.198,17.803 73.138,17.943C73.078,18.083 73.028,18.203 72.988,18.303C72.948,18.403 72.928,18.461 72.928,18.477C72.928,18.509 72.926,18.541 72.922,18.573C72.918,18.605 72.9,18.637 72.868,18.669C72.836,18.669 72.818,18.691 72.814,18.735C72.81,18.779 72.808,18.801 72.808,18.801C72.808,18.881 72.744,19.093 72.616,19.437C72.488,19.877 72.37,20.281 72.262,20.649C72.154,21.017 72.1,21.313 72.1,21.537C72.1,21.729 72.088,21.863 72.064,21.939C72.04,22.015 71.996,22.069 71.932,22.101Z" style="fill-rule:nonzero;"/>
        <path d="M78.1,22.401C77.852,22.385 77.624,22.305 77.416,22.161C77.208,22.017 77,21.873 76.792,21.729C76.656,21.593 76.548,21.447 76.468,21.291C76.388,21.135 76.324,20.929 76.276,20.673C76.244,20.521 76.244,20.325 76.276,20.085C76.308,19.845 76.36,19.605 76.432,19.365C76.504,19.125 76.572,18.933 76.636,18.789C76.732,18.565 76.854,18.323 77.002,18.063C77.15,17.803 77.298,17.555 77.446,17.319C77.594,17.083 77.712,16.893 77.8,16.749C77.856,16.693 77.882,16.663 77.878,16.659C77.874,16.655 77.872,16.653 77.872,16.653C77.872,16.613 77.914,16.511 77.998,16.347C78.082,16.183 78.156,16.037 78.22,15.909C78.34,15.781 78.408,15.677 78.424,15.597C78.44,15.517 78.428,15.453 78.388,15.405C78.372,15.373 78.402,15.313 78.478,15.225C78.554,15.137 78.666,15.037 78.814,14.925C78.962,14.813 79.128,14.705 79.312,14.601C79.504,14.449 79.69,14.367 79.87,14.355C80.05,14.343 80.156,14.381 80.188,14.469C80.188,14.493 80.234,14.499 80.326,14.487C80.418,14.475 80.526,14.455 80.65,14.427C80.774,14.399 80.884,14.377 80.98,14.361C81.02,14.313 81.114,14.275 81.262,14.247C81.41,14.219 81.584,14.193 81.784,14.169C81.888,14.177 81.994,14.179 82.102,14.175C82.21,14.171 82.304,14.165 82.384,14.157C82.464,14.149 82.504,14.145 82.504,14.145C82.56,14.129 82.632,14.145 82.72,14.193C82.808,14.241 82.884,14.337 82.948,14.481C83.004,14.625 82.976,14.739 82.864,14.823C82.752,14.907 82.532,14.969 82.204,15.009C81.964,15.041 81.762,15.067 81.598,15.087C81.434,15.107 81.264,15.131 81.088,15.159C80.912,15.187 80.684,15.233 80.404,15.297C80.204,15.337 80.038,15.377 79.906,15.417C79.774,15.457 79.66,15.523 79.564,15.615C79.468,15.707 79.36,15.845 79.24,16.029C79.184,16.069 79.112,16.173 79.024,16.341C78.936,16.509 78.848,16.677 78.76,16.845C78.536,17.157 78.352,17.413 78.208,17.613C78.064,17.813 78.008,17.933 78.04,17.973C78.04,17.973 78.088,17.985 78.184,18.009C78.28,18.033 78.344,18.045 78.376,18.045C78.456,18.005 78.554,17.977 78.67,17.961C78.786,17.945 78.88,17.929 78.952,17.913C79.448,17.785 79.83,17.687 80.098,17.619C80.366,17.551 80.566,17.501 80.698,17.469C80.83,17.437 80.936,17.417 81.016,17.409C81.128,17.321 81.238,17.313 81.346,17.385C81.454,17.457 81.54,17.557 81.604,17.685C81.644,17.797 81.644,17.889 81.604,17.961C81.564,18.033 81.458,18.099 81.286,18.159C81.114,18.219 80.864,18.291 80.536,18.375C80.208,18.459 79.784,18.573 79.264,18.717C78.824,18.845 78.454,18.921 78.154,18.945C77.854,18.969 77.712,18.901 77.728,18.741C77.672,18.709 77.61,18.745 77.542,18.849C77.474,18.953 77.41,19.093 77.35,19.269C77.29,19.445 77.238,19.633 77.194,19.833C77.15,20.033 77.122,20.219 77.11,20.391C77.098,20.563 77.108,20.693 77.14,20.781C77.204,20.965 77.294,21.115 77.41,21.231C77.526,21.347 77.72,21.445 77.992,21.525C78.152,21.533 78.308,21.545 78.46,21.561C78.612,21.577 78.784,21.545 78.976,21.465C79.448,21.385 79.806,21.301 80.05,21.213C80.294,21.125 80.436,21.065 80.476,21.033C80.54,21.001 80.582,20.979 80.602,20.967C80.622,20.955 80.652,20.949 80.692,20.949C80.668,20.989 80.676,20.989 80.716,20.949C80.756,20.909 80.82,20.853 80.908,20.781C81.02,20.677 81.152,20.595 81.304,20.535C81.456,20.475 81.59,20.437 81.706,20.421C81.822,20.405 81.884,20.417 81.892,20.457C81.94,20.537 81.926,20.653 81.85,20.805C81.774,20.957 81.648,21.119 81.472,21.291C81.296,21.463 81.076,21.625 80.812,21.777C80.388,22.001 79.928,22.159 79.432,22.251C78.936,22.343 78.492,22.393 78.1,22.401Z" style="fill-rule:nonzero;"/>
        <path d="M82.66,22.005C82.532,22.005 82.442,21.937 82.39,21.801C82.338,21.665 82.396,21.501 82.564,21.309C82.604,21.269 82.676,21.191 82.78,21.075C82.884,20.959 83,20.827 83.128,20.679C83.256,20.531 83.38,20.385 83.5,20.241L84.1,19.533L84.64,19.005L85.336,18.237C85.576,17.981 85.766,17.799 85.906,17.691C86.046,17.583 86.164,17.529 86.26,17.529C86.356,17.529 86.444,17.569 86.524,17.649C86.564,17.673 86.586,17.717 86.59,17.781C86.594,17.845 86.596,17.893 86.596,17.925C86.612,17.981 86.552,18.101 86.416,18.285C86.28,18.469 86.028,18.745 85.66,19.113C85.452,19.257 85.282,19.401 85.15,19.545C85.018,19.689 84.956,19.777 84.964,19.809C84.836,19.953 84.73,20.069 84.646,20.157C84.562,20.245 84.478,20.331 84.394,20.415C84.31,20.499 84.214,20.599 84.106,20.715C83.998,20.831 83.856,20.993 83.68,21.201C83.48,21.441 83.288,21.633 83.104,21.777C82.92,21.921 82.772,21.997 82.66,22.005ZM85.672,22.401C85.616,22.401 85.544,22.377 85.456,22.329C85.368,22.281 85.278,22.209 85.186,22.113C85.094,22.017 85.004,21.901 84.916,21.765L84.736,21.417L84.736,21.429C84.68,21.317 84.622,21.187 84.562,21.039C84.502,20.891 84.464,20.781 84.448,20.709C84.448,20.693 84.442,20.669 84.43,20.637C84.418,20.605 84.388,20.521 84.34,20.385C84.292,20.249 84.2,20.021 84.064,19.701L83.884,19.053C83.836,18.885 83.784,18.723 83.728,18.567C83.672,18.411 83.624,18.305 83.584,18.249C83.528,18.145 83.508,18.079 83.524,18.051C83.54,18.023 83.568,17.969 83.608,17.889L83.632,17.877C83.696,17.797 83.772,17.735 83.86,17.691C83.948,17.647 84.036,17.637 84.124,17.661C84.188,17.701 84.254,17.783 84.322,17.907C84.39,18.031 84.454,18.163 84.514,18.303C84.574,18.443 84.624,18.573 84.664,18.693L84.664,18.681L84.808,19.113L84.988,19.773C84.972,19.813 84.982,19.893 85.018,20.013C85.054,20.133 85.1,20.277 85.156,20.445L85.228,20.733C85.26,20.805 85.3,20.883 85.348,20.967C85.396,21.051 85.432,21.125 85.456,21.189L85.456,21.177C85.496,21.281 85.536,21.377 85.576,21.465C85.616,21.553 85.648,21.625 85.672,21.681C85.704,21.737 85.724,21.765 85.732,21.765C85.78,21.797 85.806,21.817 85.81,21.825C85.814,21.833 85.82,21.845 85.828,21.861C85.836,21.885 85.85,21.909 85.87,21.933C85.89,21.957 85.904,21.981 85.912,22.005C85.936,22.061 85.94,22.117 85.924,22.173C85.908,22.229 85.878,22.279 85.834,22.323C85.79,22.367 85.736,22.393 85.672,22.401Z" style="fill-rule:nonzero;"/>
        <path d="M86.452,24.813C86.396,24.789 86.328,24.741 86.248,24.669C86.168,24.597 86.1,24.521 86.044,24.441C85.988,24.361 85.96,24.297 85.96,24.249C85.96,24.201 85.98,24.075 86.02,23.871C86.06,23.667 86.114,23.419 86.182,23.127C86.25,22.835 86.326,22.539 86.41,22.239C86.494,21.939 86.58,21.673 86.668,21.441C86.684,21.401 86.738,21.267 86.83,21.039C86.922,20.811 87.012,20.533 87.1,20.205C87.164,19.997 87.248,19.761 87.352,19.497C87.456,19.233 87.564,18.967 87.676,18.699C87.788,18.431 87.88,18.193 87.952,17.985C88.024,17.777 88.092,17.593 88.156,17.433C88.22,17.273 88.256,17.177 88.264,17.145C88.28,17.097 88.312,17.055 88.36,17.019C88.408,16.983 88.458,16.951 88.51,16.923C88.562,16.895 88.6,16.877 88.624,16.869C88.768,16.829 88.892,16.889 88.996,17.049C89.036,17.121 89.046,17.211 89.026,17.319C89.006,17.427 88.964,17.553 88.9,17.697L88.816,17.937L89.248,17.841C89.32,17.841 89.412,17.843 89.524,17.847C89.636,17.851 89.748,17.855 89.86,17.859C89.972,17.863 90.052,17.873 90.1,17.889C90.292,17.897 90.426,17.933 90.502,17.997C90.578,18.061 90.644,18.145 90.7,18.249C90.74,18.289 90.788,18.343 90.844,18.411C90.9,18.479 90.932,18.545 90.94,18.609C90.972,18.745 90.97,18.895 90.934,19.059C90.898,19.223 90.84,19.387 90.76,19.551C90.68,19.715 90.582,19.865 90.466,20.001C90.35,20.137 90.232,20.245 90.112,20.325C90.032,20.357 89.96,20.391 89.896,20.427C89.832,20.463 89.8,20.481 89.8,20.481C89.792,20.521 89.706,20.585 89.542,20.673C89.378,20.761 89.19,20.843 88.978,20.919C88.766,20.995 88.58,21.045 88.42,21.069C88.364,21.077 88.284,21.085 88.18,21.093C88.076,21.101 87.996,21.089 87.94,21.057C87.852,21.041 87.792,21.033 87.76,21.033C87.728,21.033 87.712,21.049 87.712,21.081C87.704,21.097 87.648,21.251 87.544,21.543C87.44,21.835 87.332,22.193 87.22,22.617C87.068,23.081 86.944,23.455 86.848,23.739C86.752,24.023 86.678,24.239 86.626,24.387C86.574,24.535 86.536,24.639 86.512,24.699C86.488,24.759 86.468,24.797 86.452,24.813ZM87.976,20.265C88,20.313 88.08,20.327 88.216,20.307C88.352,20.287 88.512,20.239 88.696,20.163C88.88,20.087 89.058,19.999 89.23,19.899C89.402,19.799 89.532,19.697 89.62,19.593C89.796,19.393 89.934,19.219 90.034,19.071C90.134,18.923 90.144,18.821 90.064,18.765C89.976,18.637 89.824,18.577 89.608,18.585C89.392,18.593 89.108,18.693 88.756,18.885C88.62,18.933 88.522,18.989 88.462,19.053C88.402,19.117 88.352,19.199 88.312,19.299C88.272,19.399 88.216,19.529 88.144,19.689C88.072,19.865 88.024,19.997 88,20.085C87.976,20.173 87.968,20.233 87.976,20.265Z" style="fill-rule:nonzero;"/>
        <path d="M92.692,22.149C92.308,22.149 92.002,22.017 91.774,21.753C91.546,21.489 91.436,21.137 91.444,20.697C91.452,20.409 91.508,20.097 91.612,19.761C91.716,19.425 91.854,19.099 92.026,18.783C92.198,18.467 92.386,18.191 92.59,17.955C92.794,17.719 93.004,17.553 93.22,17.457C93.3,17.417 93.386,17.385 93.478,17.361C93.57,17.337 93.664,17.325 93.76,17.325C93.848,17.325 93.944,17.337 94.048,17.361C94.152,17.385 94.24,17.413 94.312,17.445C94.464,17.501 94.588,17.583 94.684,17.691C94.78,17.799 94.848,17.961 94.888,18.177C94.904,18.305 94.908,18.405 94.9,18.477C94.892,18.549 94.868,18.641 94.828,18.753C94.732,19.033 94.598,19.283 94.426,19.503C94.254,19.723 94.044,19.897 93.796,20.025C93.732,20.065 93.662,20.093 93.586,20.109C93.51,20.125 93.432,20.133 93.352,20.133C93.192,20.133 93.04,20.105 92.896,20.049C92.752,19.993 92.632,19.913 92.536,19.809L92.452,19.713L92.404,19.821C92.332,20.013 92.278,20.187 92.242,20.343C92.206,20.499 92.188,20.637 92.188,20.757C92.188,20.853 92.196,20.947 92.212,21.039C92.228,21.131 92.256,21.209 92.296,21.273C92.328,21.321 92.378,21.355 92.446,21.375C92.514,21.395 92.592,21.405 92.68,21.405C92.728,21.405 92.78,21.403 92.836,21.399C92.892,21.395 92.944,21.385 92.992,21.369C93.128,21.321 93.24,21.267 93.328,21.207C93.416,21.147 93.508,21.085 93.604,21.021L93.652,20.997L93.64,20.985C93.744,20.929 93.83,20.881 93.898,20.841C93.966,20.801 94.004,20.781 94.012,20.781C94.044,20.765 94.076,20.745 94.108,20.721C94.188,20.697 94.28,20.715 94.384,20.775C94.488,20.835 94.54,20.913 94.54,21.009C94.532,21.057 94.496,21.125 94.432,21.213C94.368,21.301 94.294,21.387 94.21,21.471C94.126,21.555 94.052,21.609 93.988,21.633C93.972,21.641 93.944,21.653 93.904,21.669C93.864,21.685 93.836,21.701 93.82,21.717L93.832,21.717C93.76,21.813 93.688,21.861 93.616,21.861L93.52,21.861C93.488,21.917 93.384,21.979 93.208,22.047C93.032,22.115 92.86,22.149 92.692,22.149ZM93.256,19.425C93.376,19.425 93.482,19.393 93.574,19.329C93.666,19.265 93.748,19.193 93.82,19.113C93.988,18.921 94.092,18.721 94.132,18.513C94.172,18.305 94.148,18.157 94.06,18.069C94.02,18.045 93.984,18.029 93.952,18.021C93.92,18.013 93.864,18.021 93.784,18.045C93.712,18.053 93.614,18.101 93.49,18.189C93.366,18.277 93.246,18.381 93.13,18.501C93.014,18.621 92.92,18.737 92.848,18.849L92.692,19.101C92.74,19.077 92.786,19.063 92.83,19.059C92.874,19.055 92.9,19.061 92.908,19.077C92.932,19.125 92.958,19.177 92.986,19.233C93.014,19.289 93.048,19.335 93.088,19.371C93.128,19.407 93.184,19.425 93.256,19.425Z" style="fill-rule:nonzero;"/>
        <path d="M95.68,21.669C95.608,21.613 95.548,21.551 95.5,21.483C95.452,21.415 95.44,21.301 95.464,21.141C95.488,20.917 95.52,20.719 95.56,20.547C95.6,20.375 95.648,20.177 95.704,19.953C95.72,19.857 95.766,19.693 95.842,19.461C95.918,19.229 96.008,18.977 96.112,18.705C96.216,18.433 96.324,18.175 96.436,17.931C96.548,17.687 96.644,17.505 96.724,17.385C96.796,17.329 96.89,17.303 97.006,17.307C97.122,17.311 97.212,17.345 97.276,17.409C97.364,17.481 97.384,17.607 97.336,17.787C97.288,17.967 97.168,18.249 96.976,18.633C96.904,18.809 96.842,18.951 96.79,19.059C96.738,19.167 96.71,19.239 96.706,19.275C96.702,19.311 96.728,19.313 96.784,19.281C96.832,19.193 96.92,19.091 97.048,18.975C97.176,18.859 97.312,18.745 97.456,18.633C97.6,18.521 97.736,18.421 97.864,18.333C97.992,18.245 98.08,18.189 98.128,18.165C98.192,18.125 98.266,18.091 98.35,18.063C98.434,18.035 98.492,18.013 98.524,17.997C98.708,17.909 98.9,17.877 99.1,17.901C99.3,17.925 99.424,17.997 99.472,18.117C99.48,18.181 99.506,18.229 99.55,18.261C99.594,18.293 99.616,18.309 99.616,18.309C99.648,18.309 99.666,18.321 99.67,18.345C99.674,18.369 99.676,18.381 99.676,18.381C99.676,18.437 99.63,18.485 99.538,18.525C99.446,18.565 99.336,18.589 99.208,18.597C99.104,18.605 99.012,18.625 98.932,18.657C98.852,18.689 98.756,18.729 98.644,18.777C98.34,18.953 98.056,19.121 97.792,19.281C97.528,19.441 97.268,19.661 97.012,19.941C96.956,20.005 96.898,20.075 96.838,20.151C96.778,20.227 96.716,20.317 96.652,20.421C96.612,20.461 96.572,20.549 96.532,20.685C96.492,20.821 96.458,20.951 96.43,21.075C96.402,21.199 96.388,21.273 96.388,21.297C96.388,21.297 96.376,21.335 96.352,21.411C96.328,21.487 96.288,21.561 96.232,21.633C96.136,21.761 96.052,21.831 95.98,21.843C95.908,21.855 95.808,21.797 95.68,21.669Z" style="fill-rule:nonzero;"/>
        <path d="M100.048,21.525C100.016,21.525 99.968,21.511 99.904,21.483C99.84,21.455 99.808,21.441 99.808,21.441C99.808,21.409 99.798,21.369 99.778,21.321C99.758,21.273 99.748,21.233 99.748,21.201C99.692,21.169 99.652,21.129 99.628,21.081C99.604,21.033 99.608,20.965 99.64,20.877C99.688,20.797 99.752,20.667 99.832,20.487C99.912,20.307 99.998,20.107 100.09,19.887C100.182,19.667 100.27,19.453 100.354,19.245C100.438,19.037 100.51,18.857 100.57,18.705C100.63,18.553 100.664,18.461 100.672,18.429C100.672,18.397 100.682,18.351 100.702,18.291C100.722,18.231 100.756,18.181 100.804,18.141C100.884,18.085 100.966,18.081 101.05,18.129C101.134,18.177 101.206,18.261 101.266,18.381C101.326,18.501 101.356,18.637 101.356,18.789C101.356,18.845 101.316,18.987 101.236,19.215C101.156,19.443 101.05,19.713 100.918,20.025C100.786,20.337 100.64,20.653 100.48,20.973C100.36,21.205 100.28,21.355 100.24,21.423C100.2,21.491 100.136,21.525 100.048,21.525ZM101.764,16.965C101.668,16.965 101.562,16.925 101.446,16.845C101.33,16.765 101.23,16.663 101.146,16.539C101.062,16.415 101.02,16.289 101.02,16.161C101.02,16.121 101.048,16.059 101.104,15.975C101.16,15.891 101.216,15.807 101.272,15.723C101.328,15.639 101.356,15.589 101.356,15.573C101.42,15.573 101.478,15.579 101.53,15.591C101.582,15.603 101.636,15.625 101.692,15.657C101.78,15.857 101.892,16.023 102.028,16.155C102.164,16.287 102.232,16.413 102.232,16.533C102.232,16.709 102.206,16.825 102.154,16.881C102.102,16.937 101.972,16.965 101.764,16.965Z" style="fill-rule:nonzero;"/>
        <path d="M102.388,21.609C102.364,21.577 102.332,21.537 102.292,21.489C102.252,21.441 102.232,21.401 102.232,21.369C102.232,21.353 102.23,21.333 102.226,21.309C102.222,21.285 102.204,21.273 102.172,21.273C102.148,21.249 102.164,21.157 102.22,20.997C102.276,20.837 102.354,20.651 102.454,20.439C102.554,20.227 102.656,20.019 102.76,19.815C102.864,19.611 102.952,19.449 103.024,19.329C103.064,19.305 103.09,19.271 103.102,19.227C103.114,19.183 103.112,19.161 103.096,19.161C103.096,19.161 103.118,19.123 103.162,19.047C103.206,18.971 103.24,18.921 103.264,18.897C103.328,18.785 103.376,18.671 103.408,18.555C103.44,18.439 103.448,18.341 103.432,18.261C103.4,18.221 103.364,18.209 103.324,18.225C103.284,18.241 103.264,18.249 103.264,18.249C103.232,18.257 103.186,18.271 103.126,18.291C103.066,18.311 103.012,18.337 102.964,18.369C102.78,18.497 102.654,18.557 102.586,18.549C102.518,18.541 102.444,18.441 102.364,18.249C102.332,18.161 102.32,18.091 102.328,18.039C102.336,17.987 102.368,17.937 102.424,17.889C102.488,17.833 102.554,17.789 102.622,17.757C102.69,17.725 102.74,17.697 102.772,17.673C102.86,17.617 102.95,17.569 103.042,17.529C103.134,17.489 103.196,17.465 103.228,17.457C103.436,17.393 103.612,17.385 103.756,17.433C103.9,17.481 104.008,17.589 104.08,17.757C104.192,17.893 104.248,18.043 104.248,18.207C104.248,18.371 104.192,18.565 104.08,18.789L103.96,18.969C103.92,19.049 103.914,19.089 103.942,19.089C103.97,19.089 104.004,19.061 104.044,19.005C104.068,18.973 104.116,18.925 104.188,18.861C104.26,18.797 104.308,18.765 104.332,18.765C104.332,18.765 104.342,18.761 104.362,18.753C104.382,18.745 104.392,18.713 104.392,18.657C104.416,18.633 104.442,18.609 104.47,18.585C104.498,18.561 104.512,18.549 104.512,18.549C104.544,18.549 104.6,18.519 104.68,18.459C104.76,18.399 104.864,18.317 104.992,18.213C105.08,18.149 105.16,18.117 105.232,18.117C105.416,18.061 105.566,18.121 105.682,18.297C105.798,18.473 105.856,18.701 105.856,18.981L105.604,19.629L106.036,19.101C106.084,19.037 106.134,18.981 106.186,18.933C106.238,18.885 106.284,18.845 106.324,18.813C106.34,18.757 106.364,18.725 106.396,18.717L106.468,18.699C106.484,18.695 106.492,18.681 106.492,18.657C106.532,18.625 106.576,18.595 106.624,18.567C106.672,18.539 106.704,18.509 106.72,18.477C106.856,18.421 106.994,18.411 107.134,18.447C107.274,18.483 107.384,18.585 107.464,18.753C107.52,18.849 107.558,18.933 107.578,19.005C107.598,19.077 107.608,19.185 107.608,19.329C107.592,19.449 107.578,19.539 107.566,19.599C107.554,19.659 107.544,19.721 107.536,19.785C107.528,19.849 107.516,19.945 107.5,20.073C107.468,20.137 107.45,20.205 107.446,20.277C107.442,20.349 107.44,20.417 107.44,20.481C107.44,20.585 107.444,20.655 107.452,20.691C107.46,20.727 107.492,20.745 107.548,20.745C107.66,20.721 107.794,20.671 107.95,20.595C108.106,20.519 108.232,20.437 108.328,20.349C108.448,20.237 108.554,20.191 108.646,20.211C108.738,20.231 108.796,20.289 108.82,20.385C108.836,20.417 108.814,20.489 108.754,20.601C108.694,20.713 108.624,20.821 108.544,20.925C108.464,21.029 108.404,21.081 108.364,21.081C108.34,21.081 108.306,21.107 108.262,21.159C108.218,21.211 108.176,21.249 108.136,21.273C108.08,21.329 108.026,21.381 107.974,21.429C107.922,21.477 107.864,21.501 107.8,21.501C107.768,21.501 107.73,21.511 107.686,21.531C107.642,21.551 107.592,21.561 107.536,21.561C107.456,21.585 107.334,21.573 107.17,21.525C107.006,21.477 106.9,21.365 106.852,21.189C106.82,21.101 106.786,20.969 106.75,20.793C106.714,20.617 106.712,20.429 106.744,20.229C106.776,20.085 106.796,19.953 106.804,19.833C106.812,19.713 106.828,19.629 106.852,19.581L106.852,19.407C106.852,19.315 106.84,19.269 106.816,19.269C106.784,19.269 106.714,19.321 106.606,19.425C106.498,19.529 106.372,19.661 106.228,19.821C106.084,19.981 105.942,20.151 105.802,20.331C105.662,20.511 105.544,20.677 105.448,20.829C105.376,20.917 105.312,21.025 105.256,21.153C105.2,21.281 105.16,21.353 105.136,21.369C105.08,21.433 105.004,21.441 104.908,21.393C104.812,21.345 104.732,21.269 104.668,21.165C104.644,21.117 104.624,21.079 104.608,21.051C104.592,21.023 104.584,20.981 104.584,20.925C104.584,20.869 104.602,20.777 104.638,20.649C104.674,20.521 104.732,20.333 104.812,20.085C104.9,19.813 104.978,19.567 105.046,19.347C105.114,19.127 105.148,19.017 105.148,19.017C105.148,18.985 105.088,19.015 104.968,19.107C104.848,19.199 104.708,19.313 104.548,19.449C104.476,19.537 104.366,19.661 104.218,19.821C104.07,19.981 103.904,20.167 103.72,20.379C103.536,20.591 103.352,20.821 103.168,21.069C102.936,21.397 102.77,21.597 102.67,21.669C102.57,21.741 102.476,21.721 102.388,21.609Z" style="fill-rule:nonzero;"/>
        <path d="M111.58,21.693C111.388,21.837 111.174,21.919 110.938,21.939C110.702,21.959 110.476,21.923 110.26,21.831C110.044,21.739 109.864,21.601 109.72,21.417C109.608,21.265 109.526,21.075 109.474,20.847C109.422,20.619 109.416,20.317 109.456,19.941C109.488,19.605 109.592,19.269 109.768,18.933C109.944,18.597 110.16,18.299 110.416,18.039C110.672,17.779 110.936,17.601 111.208,17.505C111.32,17.433 111.424,17.395 111.52,17.391C111.616,17.387 111.756,17.393 111.94,17.409C112.124,17.433 112.27,17.473 112.378,17.529C112.486,17.585 112.568,17.653 112.624,17.733C112.752,17.853 112.836,17.973 112.876,18.093C112.916,18.213 112.932,18.329 112.924,18.441C112.892,18.641 112.776,18.875 112.576,19.143C112.376,19.411 112.112,19.621 111.784,19.773C111.624,19.829 111.444,19.857 111.244,19.857C111.044,19.857 110.844,19.813 110.644,19.725C110.476,19.669 110.366,19.683 110.314,19.767C110.262,19.851 110.224,20.037 110.2,20.325C110.184,20.581 110.212,20.773 110.284,20.901C110.356,21.029 110.46,21.109 110.596,21.141C110.764,21.173 110.892,21.187 110.98,21.183C111.068,21.179 111.18,21.141 111.316,21.069C111.42,21.005 111.492,20.961 111.532,20.937C111.572,20.913 111.61,20.887 111.646,20.859C111.682,20.831 111.732,20.785 111.796,20.721C111.844,20.673 111.886,20.639 111.922,20.619C111.958,20.599 111.996,20.589 112.036,20.589C112.092,20.589 112.144,20.615 112.192,20.667C112.24,20.719 112.28,20.765 112.312,20.805C112.36,20.829 112.356,20.891 112.3,20.991C112.244,21.091 112.152,21.207 112.024,21.339C111.896,21.471 111.748,21.589 111.58,21.693ZM111.52,19.101C111.592,19.069 111.678,19.013 111.778,18.933C111.878,18.853 111.966,18.765 112.042,18.669C112.118,18.573 112.156,18.497 112.156,18.441C112.156,18.337 112.102,18.249 111.994,18.177C111.886,18.105 111.732,18.093 111.532,18.141C111.452,18.165 111.36,18.219 111.256,18.303C111.152,18.387 111.052,18.481 110.956,18.585C110.86,18.689 110.782,18.785 110.722,18.873C110.662,18.961 110.632,19.017 110.632,19.041C110.656,19.081 110.722,19.113 110.83,19.137C110.938,19.161 111.058,19.169 111.19,19.161C111.322,19.153 111.432,19.133 111.52,19.101Z" style="fill-rule:nonzero;"/>
        <path d="M113.92,21.561C113.888,21.561 113.832,21.537 113.752,21.489C113.672,21.441 113.616,21.401 113.584,21.369C113.528,21.305 113.494,21.239 113.482,21.171C113.47,21.103 113.464,20.957 113.464,20.733C113.464,20.477 113.516,20.195 113.62,19.887C113.724,19.579 113.9,19.153 114.148,18.609L114.58,17.721C114.612,17.657 114.642,17.607 114.67,17.571C114.698,17.535 114.728,17.501 114.76,17.469L114.88,17.469C114.952,17.469 115.034,17.509 115.126,17.589C115.218,17.669 115.28,17.765 115.312,17.877C115.312,17.981 115.298,18.093 115.27,18.213C115.242,18.333 115.144,18.505 114.976,18.729C114.92,18.817 114.852,18.955 114.772,19.143C114.692,19.331 114.632,19.497 114.592,19.641C114.584,19.657 114.566,19.695 114.538,19.755C114.51,19.815 114.482,19.879 114.454,19.947C114.426,20.015 114.4,20.073 114.376,20.121L114.316,20.325L115.024,19.605C115.4,19.237 115.706,18.975 115.942,18.819C116.178,18.663 116.37,18.597 116.518,18.621C116.666,18.645 116.788,18.749 116.884,18.933C116.94,19.021 116.982,19.103 117.01,19.179C117.038,19.255 117.056,19.349 117.064,19.461C117.072,19.573 117.064,19.737 117.04,19.953L117.04,20.673C117.176,20.641 117.28,20.611 117.352,20.583C117.424,20.555 117.5,20.525 117.58,20.493C117.652,20.469 117.732,20.445 117.82,20.421C117.908,20.397 118.016,20.381 118.144,20.373C118.136,20.477 118.098,20.593 118.03,20.721C117.962,20.849 117.876,20.973 117.772,21.093C117.668,21.213 117.556,21.311 117.436,21.387C117.316,21.463 117.2,21.501 117.088,21.501C116.984,21.501 116.866,21.455 116.734,21.363C116.602,21.271 116.5,21.149 116.428,20.997C116.396,20.901 116.374,20.797 116.362,20.685C116.35,20.573 116.344,20.397 116.344,20.157L116.344,19.689C116.344,19.585 116.318,19.547 116.266,19.575C116.214,19.603 116.172,19.629 116.14,19.653C116.044,19.725 115.924,19.835 115.78,19.983C115.636,20.131 115.488,20.281 115.336,20.433C114.968,20.817 114.662,21.101 114.418,21.285C114.174,21.469 114.008,21.561 113.92,21.561Z" style="fill-rule:nonzero;"/>
        <path d="M119.68,22.005C119.592,21.989 119.5,21.939 119.404,21.855C119.308,21.771 119.224,21.677 119.152,21.573C119.08,21.469 119.032,21.377 119.008,21.297C119.008,21.281 118.998,21.261 118.978,21.237C118.958,21.213 118.948,21.201 118.948,21.201C118.916,21.177 118.898,21.071 118.894,20.883C118.89,20.695 118.9,20.485 118.924,20.253C118.948,20.021 118.976,19.837 119.008,19.701C119.048,19.573 119.108,19.399 119.188,19.179C119.268,18.959 119.336,18.761 119.392,18.585L119.716,17.889L119.236,17.757C119.18,17.741 119.134,17.709 119.098,17.661C119.062,17.613 119.044,17.573 119.044,17.541C119.044,17.477 119.08,17.395 119.152,17.295C119.224,17.195 119.276,17.145 119.308,17.145C119.348,17.153 119.422,17.157 119.53,17.157C119.638,17.157 119.744,17.153 119.848,17.145C119.952,17.137 120.016,17.129 120.04,17.121C120.072,17.105 120.104,17.083 120.136,17.055C120.168,17.027 120.192,16.985 120.208,16.929C120.248,16.841 120.284,16.763 120.316,16.695C120.348,16.627 120.392,16.545 120.448,16.449C120.504,16.345 120.55,16.257 120.586,16.185C120.622,16.113 120.68,16.013 120.76,15.885C120.8,15.829 120.844,15.761 120.892,15.681C120.94,15.601 121,15.533 121.072,15.477C121.144,15.413 121.232,15.377 121.336,15.369C121.44,15.361 121.552,15.409 121.672,15.513C121.736,15.593 121.772,15.659 121.78,15.711C121.788,15.763 121.756,15.845 121.684,15.957C121.62,16.093 121.546,16.225 121.462,16.353C121.378,16.481 121.3,16.613 121.228,16.749C121.1,16.925 121.076,17.025 121.156,17.049C121.236,17.073 121.46,17.057 121.828,17.001C122.06,16.961 122.228,16.975 122.332,17.043C122.436,17.111 122.496,17.213 122.512,17.349C122.536,17.541 122.516,17.657 122.452,17.697C122.388,17.737 122.204,17.757 121.9,17.757C121.708,17.789 121.544,17.807 121.408,17.811C121.272,17.815 121.172,17.817 121.108,17.817C121.004,17.825 120.936,17.829 120.904,17.829C120.872,17.829 120.824,17.837 120.76,17.853C120.696,17.869 120.65,17.895 120.622,17.931C120.594,17.967 120.564,18.017 120.532,18.081C120.5,18.113 120.452,18.197 120.388,18.333C120.324,18.469 120.244,18.617 120.148,18.777C120.036,19.113 119.942,19.443 119.866,19.767C119.79,20.091 119.724,20.409 119.668,20.721C119.644,20.905 119.65,21.033 119.686,21.105C119.722,21.177 119.824,21.221 119.992,21.237C120.08,21.245 120.218,21.243 120.406,21.231C120.594,21.219 120.744,21.197 120.856,21.165C120.944,21.125 121.036,21.083 121.132,21.039C121.228,20.995 121.316,20.949 121.396,20.901C121.468,20.861 121.54,20.819 121.612,20.775C121.684,20.731 121.72,20.709 121.72,20.709C121.76,20.645 121.808,20.635 121.864,20.679C121.92,20.723 121.964,20.793 121.996,20.889C121.996,20.985 121.976,21.089 121.936,21.201C121.896,21.313 121.748,21.441 121.492,21.585C121.132,21.809 120.792,21.945 120.472,21.993C120.152,22.041 119.888,22.045 119.68,22.005Z" style="fill-rule:nonzero;"/>
        <path d="M123.88,22.005C123.656,22.013 123.45,21.985 123.262,21.921C123.074,21.857 122.916,21.763 122.788,21.639C122.66,21.515 122.58,21.377 122.548,21.225C122.516,21.129 122.504,21.061 122.512,21.021C122.52,20.981 122.552,20.949 122.608,20.925C122.664,20.933 122.718,20.953 122.77,20.985C122.822,21.017 122.888,21.053 122.968,21.093C123.088,21.197 123.232,21.255 123.4,21.267C123.568,21.279 123.72,21.257 123.856,21.201C123.992,21.145 124.068,21.069 124.084,20.973C124.084,20.941 124.07,20.881 124.042,20.793C124.014,20.705 123.98,20.613 123.94,20.517C123.732,20.221 123.586,19.927 123.502,19.635C123.418,19.343 123.376,19.089 123.376,18.873C123.376,18.737 123.422,18.591 123.514,18.435C123.606,18.279 123.728,18.141 123.88,18.021C124.032,17.877 124.2,17.743 124.384,17.619C124.568,17.495 124.754,17.389 124.942,17.301C125.13,17.213 125.296,17.153 125.44,17.121C125.544,17.121 125.672,17.131 125.824,17.151C125.976,17.171 126.08,17.201 126.136,17.241C126.232,17.289 126.322,17.393 126.406,17.553C126.49,17.713 126.532,17.861 126.532,17.997C126.532,18.053 126.51,18.127 126.466,18.219C126.422,18.311 126.368,18.413 126.304,18.525C126.272,18.605 126.238,18.681 126.202,18.753C126.166,18.825 126.144,18.881 126.136,18.921C126.088,19.017 126.022,19.061 125.938,19.053C125.854,19.045 125.772,19.001 125.692,18.921C125.612,18.841 125.556,18.745 125.524,18.633C125.508,18.513 125.514,18.413 125.542,18.333C125.57,18.253 125.604,18.177 125.644,18.105C125.7,18.041 125.726,17.997 125.722,17.973C125.718,17.949 125.68,17.937 125.608,17.937C125.552,17.937 125.454,17.967 125.314,18.027C125.174,18.087 125.026,18.167 124.87,18.267C124.714,18.367 124.576,18.473 124.456,18.585C124.328,18.713 124.246,18.815 124.21,18.891C124.174,18.967 124.156,19.069 124.156,19.197C124.156,19.309 124.182,19.445 124.234,19.605C124.286,19.765 124.34,19.881 124.396,19.953C124.396,19.961 124.422,20.011 124.474,20.103C124.526,20.195 124.584,20.297 124.648,20.409C124.904,20.953 124.962,21.349 124.822,21.597C124.682,21.845 124.368,21.981 123.88,22.005Z" style="fill-rule:nonzero;"/>
    </g>
</svg>
